<svg width="30" height="30" viewBox="0 0 50 50" fill="none" xmlns="http://www.w3.org/2000/svg">
<path fill-rule="evenodd" clip-rule="evenodd" d="M25 0C11.2 0 0 11.2 0 25C0 38.8 11.2 50 25 50C38.8 50 50 38.8 50 25C50 11.2 38.8 0 25 0ZM12.6746 40.7002C13.7496 38.4502 20.2996 36.2502 24.9996 36.2502C29.6996 36.2502 36.2746 38.4502 37.3246 40.7002C33.9246 43.4002 29.6496 45.0002 24.9996 45.0002C20.3496 45.0002 16.0746 43.4002 12.6746 40.7002ZM25 31.2502C28.65 31.2502 37.325 32.7252 40.9 37.0752C43.45 33.7252 45 29.5502 45 25.0002C45 13.9752 36.025 5.00024 25 5.00024C13.975 5.00024 5 13.9752 5 25.0002C5 29.5502 6.55 33.7252 9.1 37.0752C12.675 32.7252 21.35 31.2502 25 31.2502ZM25 10C20.15 10 16.25 13.9 16.25 18.75C16.25 23.6 20.15 27.5 25 27.5C29.85 27.5 33.75 23.6 33.75 18.75C33.75 13.9 29.85 10 25 10ZM21.25 18.75C21.25 20.825 22.925 22.5 25 22.5C27.075 22.5 28.75 20.825 28.75 18.75C28.75 16.675 27.075 15 25 15C22.925 15 21.25 16.675 21.25 18.75Z" fill="white"/>
</svg>
