<svg width="45" height="45" viewBox="0 0 50 50" fill="none" xmlns="http://www.w3.org/2000/svg">
<path fill-rule="evenodd" clip-rule="evenodd" d="M0 25C0 11.2 11.2 0 25 0C38.8 0 50 11.2 50 25C50 38.8 38.8 50 25 50C11.2 50 0 38.8 0 25ZM27.5 35V40H22.5V35H27.5ZM25 45C13.975 45 5 36.025 5 25C5 13.975 13.975 5 25 5C36.025 5 45 13.975 45 25C45 36.025 36.025 45 25 45ZM15 20C15 14.475 19.475 10 25 10C30.525 10 35 14.475 35 20C35 23.2073 33.0249 24.9333 31.1019 26.6138C29.2775 28.2082 27.5 29.7616 27.5 32.5H22.5C22.5 27.9468 24.8553 26.1415 26.9261 24.5542C28.5506 23.309 30 22.198 30 20C30 17.25 27.75 15 25 15C22.25 15 20 17.25 20 20H15Z" fill="white"/>
</svg>
