<svg width="40" height="40" viewBox="0 0 76 76" fill="none" xmlns="http://www.w3.org/2000/svg">
    <path fill-rule="evenodd" clip-rule="evenodd" d="M38.1254 0.873047C17.4254 0.873047 0.625366 17.673 0.625366 38.373C0.625366 59.073 17.4254 75.873 38.1254 75.873C58.8254 75.873 75.6254 59.073 75.6254 38.373C75.6254 17.673 58.8254 0.873047 38.1254 0.873047ZM38.1254 68.3732C21.5879 68.3732 8.12537 54.9107 8.12537 38.3732C8.12537 21.8357 21.5879 8.37321 38.1254 8.37321C54.6629 8.37321 68.1254 21.8357 68.1254 38.3732C68.1254 54.9107 54.6629 68.3732 38.1254 68.3732ZM53.1254 38.3732L30.6252 55.2482V21.4982L53.1254 38.3732Z" fill="white"/>
</svg>